<svg width="1045" height="329" viewBox="0 0 1045 329" fill="none" xmlns="http://www.w3.org/2000/svg">
<mask id="path-1-inside-1_7_105" fill="transparent">
<path fill-rule="evenodd" clip-rule="evenodd" d="M164.5 323C252.037 323 323 252.037 323 164.5C323 76.9629 252.037 6 164.5 6C76.9629 6 6 76.9629 6 164.5C6 252.037 76.9629 323 164.5 323ZM164.5 329C255.351 329 329 255.351 329 164.5C329 73.6492 255.351 0 164.5 0C73.6492 0 0 73.6492 0 164.5C0 255.351 73.6492 329 164.5 329ZM120 84.0625L89 117V124V165V206V226.5L121 247V165V129.048L141 110H175H207.5H240L219 83H207.5H175H121H120V84.0625ZM166 118H150L134 134.125V182.5V214.75V247H142H150H166H203H221.5L240 220H221.5H203H166V182.5V150.25V145H203H221.5L240 118H221.5H203H166Z"/>
</mask>
<path fill-rule="evenodd" clip-rule="evenodd" d="M164.5 323C252.037 323 323 252.037 323 164.5C323 76.9629 252.037 6 164.5 6C76.9629 6 6 76.9629 6 164.5C6 252.037 76.9629 323 164.5 323ZM164.5 329C255.351 329 329 255.351 329 164.5C329 73.6492 255.351 0 164.5 0C73.6492 0 0 73.6492 0 164.5C0 255.351 73.6492 329 164.5 329ZM120 84.0625L89 117V124V165V206V226.5L121 247V165V129.048L141 110H175H207.5H240L219 83H207.5H175H121H120V84.0625ZM166 118H150L134 134.125V182.5V214.75V247H142H150H166H203H221.5L240 220H221.5H203H166V182.5V150.25V145H203H221.5L240 118H221.5H203H166Z" fill="white"/>
<path d="M89 117L83.9026 112.202L82 114.224V117H89ZM120 84.0625L125.097 88.8601L127 86.8385V84.0625H120ZM89 226.5H82V230.329L85.224 232.394L89 226.5ZM121 247L117.224 252.894L128 259.798V247H121ZM121 129.048L116.172 123.979L114 126.048V129.048H121ZM141 110V103H138.2L136.172 104.931L141 110ZM240 110V117H254.312L245.525 105.702L240 110ZM219 83L224.525 78.7024L222.424 76H219V83ZM120 83V76H113V83H120ZM150 118V111H147.085L145.031 113.07L150 118ZM134 134.125L129.031 129.195L127 131.241V134.125H134ZM134 247H127V254H134V247ZM221.5 247V254H225.189L227.275 250.957L221.5 247ZM240 220L245.775 223.957L253.282 213H240V220ZM166 220H159V227H166V220ZM166 145V138H159V145H166ZM221.5 145V152H225.189L227.275 148.957L221.5 145ZM240 118L245.775 121.957L253.282 111H240V118ZM316 164.5C316 248.171 248.171 316 164.5 316V330C255.903 330 330 255.903 330 164.5H316ZM164.5 13C248.171 13 316 80.8289 316 164.5H330C330 73.0969 255.903 -1 164.5 -1V13ZM13 164.5C13 80.8289 80.8289 13 164.5 13V-1C73.0969 -1 -1 73.0969 -1 164.5H13ZM164.5 316C80.8289 316 13 248.171 13 164.5H-1C-1 255.903 73.0969 330 164.5 330V316ZM322 164.5C322 251.485 251.485 322 164.5 322V336C259.217 336 336 259.217 336 164.5H322ZM164.5 7C251.485 7 322 77.5152 322 164.5H336C336 69.7832 259.217 -7 164.5 -7V7ZM7 164.5C7 77.5152 77.5152 7 164.5 7V-7C69.7832 -7 -7 69.7832 -7 164.5H7ZM164.5 322C77.5152 322 7 251.485 7 164.5H-7C-7 259.217 69.7832 336 164.5 336V322ZM94.0974 121.798L125.097 88.8601L114.903 79.2649L83.9026 112.202L94.0974 121.798ZM96 124V117H82V124H96ZM96 165V124H82V165H96ZM96 206V165H82V206H96ZM96 226.5V206H82V226.5H96ZM124.776 241.106L92.776 220.606L85.224 232.394L117.224 252.894L124.776 241.106ZM114 165V247H128V165H114ZM114 129.048V165H128V129.048H114ZM136.172 104.931L116.172 123.979L125.828 134.117L145.828 115.069L136.172 104.931ZM175 103H141V117H175V103ZM207.5 103H175V117H207.5V103ZM240 103H207.5V117H240V103ZM213.475 87.2976L234.475 114.298L245.525 105.702L224.525 78.7024L213.475 87.2976ZM207.5 90H219V76H207.5V90ZM175 90H207.5V76H175V90ZM121 90H175V76H121V90ZM120 90H121V76H120V90ZM127 84.0625V83H113V84.0625H127ZM150 125H166V111H150V125ZM138.969 139.055L154.969 122.93L145.031 113.07L129.031 129.195L138.969 139.055ZM141 182.5V134.125H127V182.5H141ZM141 214.75V182.5H127V214.75H141ZM141 247V214.75H127V247H141ZM142 240H134V254H142V240ZM150 240H142V254H150V240ZM166 240H150V254H166V240ZM203 240H166V254H203V240ZM221.5 240H203V254H221.5V240ZM234.225 216.043L215.725 243.043L227.275 250.957L245.775 223.957L234.225 216.043ZM221.5 227H240V213H221.5V227ZM203 227H221.5V213H203V227ZM166 227H203V213H166V227ZM159 182.5V220H173V182.5H159ZM159 150.25V182.5H173V150.25H159ZM159 145V150.25H173V145H159ZM203 138H166V152H203V138ZM221.5 138H203V152H221.5V138ZM234.225 114.043L215.725 141.043L227.275 148.957L245.775 121.957L234.225 114.043ZM221.5 125H240V111H221.5V125ZM203 125H221.5V111H203V125ZM166 125H203V111H166V125Z" fill="white" mask="url(#path-1-inside-1_7_105)"/>
<path d="M370.328 148.688V90.2344C370.328 88.9531 370.75 87.8906 371.594 87.0469C372.438 86.2031 373.5 85.7812 374.781 85.7812H420.062C421.344 85.7812 422.391 86.2031 423.203 87.0469C424.047 87.8906 424.469 88.9531 424.469 90.2344V94.6406C424.469 95.9219 424.047 96.9844 423.203 97.8281C422.391 98.6406 421.344 99.0469 420.062 99.0469H388V148.688C388 149.906 387.562 150.938 386.688 151.781C385.844 152.594 384.812 153 383.594 153H374.781C373.562 153 372.516 152.594 371.641 151.781C370.766 150.938 370.328 149.906 370.328 148.688ZM422.922 148.688L434.688 104.062C437.875 91.9062 448.25 85.8125 465.812 85.7812H491.078C492.234 85.7812 493.188 86.2188 493.938 87.0938C494.719 87.9688 495.109 88.9844 495.109 90.1406V148.688C495.109 149.906 494.672 150.938 493.797 151.781C492.922 152.594 491.875 153 490.656 153H481.844C480.562 153 479.5 152.594 478.656 151.781C477.844 150.938 477.438 149.875 477.438 148.594V136.781H444.109L440.969 148.594C440.656 149.875 439.953 150.938 438.859 151.781C437.766 152.594 436.609 153 435.391 153H426.156C424.938 153 424.062 152.656 423.531 151.969C423 151.25 422.734 150.625 422.734 150.094C422.766 149.562 422.828 149.094 422.922 148.688ZM447.578 123.516H477.438V99.0469H464.078C461.078 99.0469 458.453 99.9062 456.203 101.625C453.984 103.312 452.484 105.594 451.703 108.469L447.578 123.516ZM502.984 149.062L514.891 104.062C518.078 91.9062 528.438 85.8125 545.969 85.7812H569.406C570.5 85.7812 571.422 86.2344 572.172 87.1406C572.953 88.0469 573.344 89.0781 573.344 90.2344V148.594C573.344 149.812 572.922 150.859 572.078 151.734C571.266 152.578 570.25 153 569.031 153H560.078C558.859 153 557.812 152.578 556.938 151.734C556.094 150.859 555.672 149.812 555.672 148.594V99.0469H544.234C541.234 99.0469 538.609 99.9062 536.359 101.625C534.141 103.312 532.641 105.594 531.859 108.469L521.125 148.594C520.812 149.875 520.109 150.938 519.016 151.781C517.922 152.594 516.766 153 515.547 153H506.031C504.938 153 504.125 152.656 503.594 151.969C503.094 151.281 502.844 150.703 502.844 150.234C502.875 149.766 502.922 149.375 502.984 149.062ZM581.266 148.688L593.031 104.062C596.219 91.9062 606.594 85.8125 624.156 85.7812H649.422C650.578 85.7812 651.531 86.2188 652.281 87.0938C653.062 87.9688 653.453 88.9844 653.453 90.1406V148.688C653.453 149.906 653.016 150.938 652.141 151.781C651.266 152.594 650.219 153 649 153H640.188C638.906 153 637.844 152.594 637 151.781C636.188 150.938 635.781 149.875 635.781 148.594V136.781H602.453L599.312 148.594C599 149.875 598.297 150.938 597.203 151.781C596.109 152.594 594.953 153 593.734 153H584.5C583.281 153 582.406 152.656 581.875 151.969C581.344 151.25 581.078 150.625 581.078 150.094C581.109 149.562 581.172 149.094 581.266 148.688ZM605.922 123.516H635.781V99.0469H622.422C619.422 99.0469 616.797 99.9062 614.547 101.625C612.328 103.312 610.828 105.594 610.047 108.469L605.922 123.516ZM736.422 150.938C736.422 152.312 735.609 153 733.984 153H723.25C722.031 153 720.719 152.578 719.312 151.734C717.906 150.859 716.812 149.812 716.031 148.594L707.781 135.516C705.812 132.328 703.828 129.938 701.828 128.344C699.828 126.719 697.422 125.906 694.609 125.906H684.531V148.688C684.531 149.906 684.094 150.938 683.219 151.781C682.375 152.594 681.344 153 680.125 153H671.312C670.094 153 669.047 152.562 668.172 151.688C667.297 150.781 666.859 149.719 666.859 148.5V90.2344C666.859 89.0156 667.297 87.9531 668.172 87.0469C669.047 86.1406 670.094 85.6875 671.312 85.6875H680.125C681.344 85.6875 682.375 86.1406 683.219 87.0469C684.094 87.9531 684.531 89.0156 684.531 90.2344V112.688H694.609C697.359 112.688 699.766 111.938 701.828 110.438C703.922 108.938 705.906 106.516 707.781 103.172L715.047 90.2344C716.703 87.2344 718.953 85.7188 721.797 85.6875H732.625C734.125 85.6875 734.875 86.3438 734.875 87.6562C734.875 88.375 734.609 89.2344 734.078 90.2344L723.906 108.656C722.438 111.344 720.781 113.562 718.938 115.312C717.125 117.062 714.75 118.297 711.812 119.016C713.875 119.453 715.984 120.75 718.141 122.906C720.328 125.062 722.25 127.406 723.906 129.938L735.625 148.594C736.156 149.5 736.422 150.281 736.422 150.938ZM737.406 94.6406V90.2344C737.406 88.9531 737.828 87.8906 738.672 87.0469C739.516 86.2031 740.578 85.7812 741.859 85.7812H801.344C802.625 85.7812 803.688 86.2031 804.531 87.0469C805.375 87.8906 805.797 88.9531 805.797 90.2344V94.6406C805.797 95.9219 805.375 96.9844 804.531 97.8281C803.688 98.6406 802.625 99.0469 801.344 99.0469H780.438V148.688C780.438 149.906 780 150.938 779.125 151.781C778.281 152.594 777.25 153 776.031 153H767.172C765.953 153 764.906 152.594 764.031 151.781C763.188 150.938 762.766 149.906 762.766 148.688V99.0469H741.859C740.578 99.0469 739.516 98.6406 738.672 97.8281C737.828 96.9844 737.406 95.9219 737.406 94.6406ZM813.484 148.594V90.2344C813.484 88.9531 813.906 87.8906 814.75 87.0469C815.594 86.2031 816.656 85.7812 817.938 85.7812H826.188C827.406 85.7812 828.438 86.2031 829.281 87.0469C830.156 87.8906 830.594 88.9219 830.594 90.1406V137.062L857.266 90.2344C857.984 89.0156 858.969 87.9688 860.219 87.0938C861.469 86.2188 862.625 85.7812 863.688 85.7812H877.516C878.734 85.7812 879.766 86.2188 880.609 87.0938C881.453 87.9688 881.875 89.0156 881.875 90.2344V148.594C881.875 149.812 881.438 150.859 880.562 151.734C879.688 152.578 878.641 153 877.422 153H869.172C867.953 153 866.906 152.578 866.031 151.734C865.188 150.859 864.766 149.812 864.766 148.594V105.094L840.297 148.594C839.578 149.812 838.562 150.859 837.25 151.734C835.938 152.578 834.672 153 833.453 153H817.938C816.719 153 815.672 152.578 814.797 151.734C813.922 150.859 813.484 149.812 813.484 148.594ZM964.891 150.938C964.891 152.312 964.078 153 962.453 153H951.719C950.5 153 949.188 152.578 947.781 151.734C946.375 150.859 945.281 149.812 944.5 148.594L936.25 135.516C934.281 132.328 932.297 129.938 930.297 128.344C928.297 126.719 925.891 125.906 923.078 125.906H913V148.688C913 149.906 912.562 150.938 911.688 151.781C910.844 152.594 909.812 153 908.594 153H899.781C898.562 153 897.516 152.562 896.641 151.688C895.766 150.781 895.328 149.719 895.328 148.5V90.2344C895.328 89.0156 895.766 87.9531 896.641 87.0469C897.516 86.1406 898.562 85.6875 899.781 85.6875H908.594C909.812 85.6875 910.844 86.1406 911.688 87.0469C912.562 87.9531 913 89.0156 913 90.2344V112.688H923.078C925.828 112.688 928.234 111.938 930.297 110.438C932.391 108.938 934.375 106.516 936.25 103.172L943.516 90.2344C945.172 87.2344 947.422 85.7188 950.266 85.6875H961.094C962.594 85.6875 963.344 86.3438 963.344 87.6562C963.344 88.375 963.078 89.2344 962.547 90.2344L952.375 108.656C950.906 111.344 949.25 113.562 947.406 115.312C945.594 117.062 943.219 118.297 940.281 119.016C942.344 119.453 944.453 120.75 946.609 122.906C948.797 125.062 950.719 127.406 952.375 129.938L964.094 148.594C964.625 149.5 964.891 150.281 964.891 150.938ZM966.109 148.688L977.875 104.062C981.062 91.9062 991.438 85.8125 1009 85.7812H1034.27C1035.42 85.7812 1036.38 86.2188 1037.12 87.0938C1037.91 87.9688 1038.3 88.9844 1038.3 90.1406V148.688C1038.3 149.906 1037.86 150.938 1036.98 151.781C1036.11 152.594 1035.06 153 1033.84 153H1025.03C1023.75 153 1022.69 152.594 1021.84 151.781C1021.03 150.938 1020.62 149.875 1020.62 148.594V136.781H987.297L984.156 148.594C983.844 149.875 983.141 150.938 982.047 151.781C980.953 152.594 979.797 153 978.578 153H969.344C968.125 153 967.25 152.656 966.719 151.969C966.188 151.25 965.922 150.625 965.922 150.094C965.953 149.562 966.016 149.094 966.109 148.688ZM990.766 123.516H1020.62V99.0469H1007.27C1004.27 99.0469 1001.64 99.9062 999.391 101.625C997.172 103.312 995.672 105.594 994.891 108.469L990.766 123.516ZM583.469 267.078C577.688 261.547 574.797 253 574.797 241.438C574.797 229.844 577.688 221.281 583.469 215.75C589.281 210.188 597.984 207.406 609.578 207.406H620.031C627.125 207.406 633.391 209.25 638.828 212.938C644.297 216.625 647.031 221.672 647.031 228.078C647.031 229.922 646.484 231.25 645.391 232.062C644.297 232.844 643.234 233.234 642.203 233.234H636.625C633.75 233.234 631.516 231.516 629.922 228.078C627.609 223.141 623.766 220.672 618.391 220.672H610.047C603.203 220.672 598.562 222.141 596.125 225.078C593.688 228.016 592.469 233.453 592.469 241.391C592.469 249.328 593.688 254.781 596.125 257.75C598.562 260.688 603.203 262.156 610.047 262.156H619.375C624.75 262.156 628.578 259.688 630.859 254.75C632.453 251.281 634.703 249.547 637.609 249.547H643.188C644.656 249.547 645.812 250.094 646.656 251.188C647.531 252.281 647.969 253.469 647.969 254.75C647.969 261.156 645.25 266.203 639.812 269.891C634.375 273.547 628.109 275.375 621.016 275.375H609.578C597.984 275.375 589.281 272.609 583.469 267.078ZM657.109 212.234C657.109 211.016 657.547 209.969 658.422 209.094C659.297 208.219 660.344 207.781 661.562 207.781H699.672C709.016 207.781 715.906 210.469 720.344 215.844C722.812 218.812 724.047 222.609 724.047 227.234C724.047 231.828 721.938 235.844 717.719 239.281C723.719 242.5 726.719 247.5 726.719 254.281C726.719 261.062 724.312 266.219 719.5 269.75C714.719 273.25 708.844 275 701.875 275H661.562C660.344 275 659.297 274.578 658.422 273.734C657.547 272.859 657.109 271.812 657.109 270.594V212.234ZM674.781 262.344H701.594C704 262.344 705.844 261.625 707.125 260.188C708.406 258.75 709.047 256.781 709.047 254.281C709.047 251.781 708.406 249.812 707.125 248.375C705.844 246.938 704 246.219 701.594 246.219H674.781V262.344ZM674.781 233.891H699.859C701.828 233.891 703.406 233.312 704.594 232.156C705.781 230.969 706.375 229.328 706.375 227.234C706.375 225.109 705.781 223.453 704.594 222.266C703.406 221.078 701.828 220.484 699.859 220.484H674.781V233.891ZM730.797 270.688L742.562 226.062C745.75 213.906 756.125 207.812 773.688 207.781H798.953C800.109 207.781 801.062 208.219 801.812 209.094C802.594 209.969 802.984 210.984 802.984 212.141V270.688C802.984 271.906 802.547 272.938 801.672 273.781C800.797 274.594 799.75 275 798.531 275H789.719C788.438 275 787.375 274.594 786.531 273.781C785.719 272.938 785.312 271.875 785.312 270.594V258.781H751.984L748.844 270.594C748.531 271.875 747.828 272.938 746.734 273.781C745.641 274.594 744.484 275 743.266 275H734.031C732.812 275 731.938 274.656 731.406 273.969C730.875 273.25 730.609 272.625 730.609 272.094C730.641 271.562 730.703 271.094 730.797 270.688ZM755.453 245.516H785.312V221.047H771.953C768.953 221.047 766.328 221.906 764.078 223.625C761.859 225.312 760.359 227.594 759.578 230.469L755.453 245.516ZM816.391 270.594V212.234C816.391 211.016 816.812 209.969 817.656 209.094C818.5 208.219 819.531 207.781 820.75 207.781H856.516C875.422 207.781 884.875 216.5 884.875 233.938C884.875 251.344 875.422 260.047 856.516 260.047H834.062V270.594C834.062 271.812 833.625 272.859 832.75 273.734C831.906 274.578 830.875 275 829.656 275H820.844C819.625 275 818.578 274.578 817.703 273.734C816.828 272.859 816.391 271.812 816.391 270.594ZM834.062 246.781H851.172C856.422 246.781 860.406 245.906 863.125 244.156C865.844 242.375 867.203 238.969 867.203 233.938C867.203 228.875 865.844 225.469 863.125 223.719C860.406 221.938 856.422 221.047 851.172 221.047H834.062V246.781ZM963.109 272.938C963.109 274.312 962.297 275 960.672 275H949.938C948.719 275 947.406 274.578 946 273.734C944.594 272.859 943.5 271.812 942.719 270.594L934.469 257.516C932.5 254.328 930.516 251.938 928.516 250.344C926.516 248.719 924.109 247.906 921.297 247.906H911.219V270.688C911.219 271.906 910.781 272.938 909.906 273.781C909.062 274.594 908.031 275 906.812 275H898C896.781 275 895.734 274.562 894.859 273.688C893.984 272.781 893.547 271.719 893.547 270.5V212.234C893.547 211.016 893.984 209.953 894.859 209.047C895.734 208.141 896.781 207.688 898 207.688H906.812C908.031 207.688 909.062 208.141 909.906 209.047C910.781 209.953 911.219 211.016 911.219 212.234V234.688H921.297C924.047 234.688 926.453 233.938 928.516 232.438C930.609 230.938 932.594 228.516 934.469 225.172L941.734 212.234C943.391 209.234 945.641 207.719 948.484 207.688H959.312C960.812 207.688 961.562 208.344 961.562 209.656C961.562 210.375 961.297 211.234 960.766 212.234L950.594 230.656C949.125 233.344 947.469 235.562 945.625 237.312C943.812 239.062 941.438 240.297 938.5 241.016C940.562 241.453 942.672 242.75 944.828 244.906C947.016 247.062 948.938 249.406 950.594 251.938L962.312 270.594C962.844 271.5 963.109 272.281 963.109 272.938ZM969.859 270.594V212.234C969.859 210.953 970.281 209.891 971.125 209.047C971.969 208.203 973.031 207.781 974.312 207.781H982.562C983.781 207.781 984.812 208.203 985.656 209.047C986.531 209.891 986.969 210.922 986.969 212.141V259.062L1013.64 212.234C1014.36 211.016 1015.34 209.969 1016.59 209.094C1017.84 208.219 1019 207.781 1020.06 207.781H1033.89C1035.11 207.781 1036.14 208.219 1036.98 209.094C1037.83 209.969 1038.25 211.016 1038.25 212.234V270.594C1038.25 271.812 1037.81 272.859 1036.94 273.734C1036.06 274.578 1035.02 275 1033.8 275H1025.55C1024.33 275 1023.28 274.578 1022.41 273.734C1021.56 272.859 1021.14 271.812 1021.14 270.594V227.094L996.672 270.594C995.953 271.812 994.938 272.859 993.625 273.734C992.312 274.578 991.047 275 989.828 275H974.312C973.094 275 972.047 274.578 971.172 273.734C970.297 272.859 969.859 271.812 969.859 270.594Z" fill="white"/>
<path d="M423.203 87.0469L422.483 87.7405L422.489 87.7473L422.496 87.754L423.203 87.0469ZM388 99.0469V98.0469H387V99.0469H388ZM386.688 151.781L387.381 152.502L387.382 152.501L386.688 151.781ZM371.641 151.781L370.946 152.501L370.953 152.508L370.96 152.514L371.641 151.781ZM371.328 148.688V90.2344H369.328V148.688H371.328ZM371.328 90.2344C371.328 89.1967 371.659 88.3954 372.301 87.754L370.887 86.3398C369.841 87.3858 369.328 88.7095 369.328 90.2344H371.328ZM372.301 87.754C372.942 87.1125 373.744 86.7812 374.781 86.7812V84.7812C373.256 84.7812 371.933 85.2937 370.887 86.3398L372.301 87.754ZM374.781 86.7812H420.062V84.7812H374.781V86.7812ZM420.062 86.7812C421.1 86.7812 421.878 87.112 422.483 87.7405L423.923 86.3532C422.904 85.2943 421.587 84.7812 420.062 84.7812V86.7812ZM422.496 87.754C423.137 88.3954 423.469 89.1967 423.469 90.2344H425.469C425.469 88.7095 424.956 87.3858 423.91 86.3398L422.496 87.754ZM423.469 90.2344V94.6406H425.469V90.2344H423.469ZM423.469 94.6406C423.469 95.6783 423.137 96.4796 422.496 97.121L423.91 98.5352C424.956 97.4892 425.469 96.1655 425.469 94.6406H423.469ZM422.496 97.121C421.893 97.7236 421.112 98.0469 420.062 98.0469V100.047C421.576 100.047 422.888 99.5576 423.91 98.5352L422.496 97.121ZM420.062 98.0469H388V100.047H420.062V98.0469ZM387 99.0469V148.688H389V99.0469H387ZM387 148.688C387 149.636 386.672 150.407 385.993 151.061L387.382 152.501C388.453 151.468 389 150.177 389 148.688H387ZM385.994 151.061C385.345 151.686 384.565 152 383.594 152V154C385.06 154 386.343 153.501 387.381 152.502L385.994 151.061ZM383.594 152H374.781V154H383.594V152ZM374.781 152C373.809 152 373.007 151.685 372.321 151.048L370.96 152.514C372.024 153.502 373.316 154 374.781 154V152ZM372.335 151.061C371.656 150.407 371.328 149.636 371.328 148.688H369.328C369.328 150.177 369.875 151.468 370.946 152.501L372.335 151.061ZM422.922 148.688L421.955 148.433L421.951 148.448L421.947 148.463L422.922 148.688ZM434.688 104.062L435.654 104.317L435.655 104.316L434.688 104.062ZM465.812 85.7812L465.812 84.7812L465.811 84.7813L465.812 85.7812ZM493.938 87.0938L493.178 87.7445L493.185 87.7522L493.192 87.7598L493.938 87.0938ZM493.797 151.781L494.477 152.514L494.484 152.508L494.491 152.501L493.797 151.781ZM478.656 151.781L477.936 152.475L477.949 152.488L477.963 152.502L478.656 151.781ZM477.438 136.781H478.438V135.781H477.438V136.781ZM444.109 136.781V135.781H443.341L443.143 136.524L444.109 136.781ZM440.969 148.594L440.002 148.337L440 148.347L439.997 148.357L440.969 148.594ZM438.859 151.781L439.456 152.584L439.463 152.579L439.47 152.573L438.859 151.781ZM423.531 151.969L422.727 152.563L422.733 152.572L422.74 152.58L423.531 151.969ZM422.734 150.094L421.736 150.035L421.734 150.064V150.094H422.734ZM447.578 123.516L446.614 123.251L446.267 124.516H447.578V123.516ZM477.438 123.516V124.516H478.438V123.516H477.438ZM477.438 99.0469H478.438V98.0469H477.438V99.0469ZM456.203 101.625L456.808 102.421L456.81 102.42L456.203 101.625ZM451.703 108.469L452.668 108.733L452.668 108.731L451.703 108.469ZM423.889 148.942L435.654 104.317L433.721 103.808L421.955 148.433L423.889 148.942ZM435.655 104.316C437.185 98.4812 440.417 94.1437 445.366 91.2373C450.346 88.3124 457.134 86.7967 465.814 86.7812L465.811 84.7813C456.928 84.7971 449.748 86.3439 444.353 89.5127C438.926 92.7 435.378 97.4876 433.72 103.809L435.655 104.316ZM465.812 86.7812H491.078V84.7812H465.812V86.7812ZM491.078 86.7812C491.944 86.7812 492.619 87.092 493.178 87.7445L494.697 86.443C493.756 85.3455 492.525 84.7812 491.078 84.7812V86.7812ZM493.192 87.7598C493.812 88.4544 494.109 89.234 494.109 90.1406H496.109C496.109 88.7348 495.626 87.4831 494.683 86.4277L493.192 87.7598ZM494.109 90.1406V148.688H496.109V90.1406H494.109ZM494.109 148.688C494.109 149.636 493.782 150.407 493.103 151.061L494.491 152.501C495.562 151.468 496.109 150.177 496.109 148.688H494.109ZM493.116 151.048C492.431 151.685 491.628 152 490.656 152V154C492.122 154 493.413 153.502 494.477 152.514L493.116 151.048ZM490.656 152H481.844V154H490.656V152ZM481.844 152C480.795 152 479.989 151.676 479.35 151.061L477.963 152.502C479.011 153.511 480.33 154 481.844 154V152ZM479.377 151.088C478.761 150.448 478.438 149.643 478.438 148.594H476.438C476.438 150.107 476.926 151.427 477.936 152.475L479.377 151.088ZM478.438 148.594V136.781H476.438V148.594H478.438ZM477.438 135.781H444.109V137.781H477.438V135.781ZM443.143 136.524L440.002 148.337L441.935 148.851L445.076 137.038L443.143 136.524ZM439.997 148.357C439.741 149.406 439.172 150.277 438.249 150.989L439.47 152.573C440.734 151.598 441.571 150.344 441.94 148.831L439.997 148.357ZM438.263 150.979C437.32 151.679 436.369 152 435.391 152V154C436.849 154 438.211 153.509 439.456 152.584L438.263 150.979ZM435.391 152H426.156V154H435.391V152ZM426.156 152C425.115 152 424.596 151.711 424.323 151.357L422.74 152.58C423.529 153.601 424.76 154 426.156 154V152ZM424.335 151.374C423.853 150.721 423.734 150.309 423.734 150.094H421.734C421.734 150.941 422.147 151.779 422.727 152.563L424.335 151.374ZM423.733 150.152C423.761 149.663 423.818 149.251 423.896 148.912L421.947 148.463C421.838 148.936 421.77 149.462 421.736 150.035L423.733 150.152ZM447.578 124.516H477.438V122.516H447.578V124.516ZM478.438 123.516V99.0469H476.438V123.516H478.438ZM477.438 98.0469H464.078V100.047H477.438V98.0469ZM464.078 98.0469C460.873 98.0469 458.031 98.9702 455.596 100.83L456.81 102.42C458.875 100.842 461.284 100.047 464.078 100.047V98.0469ZM455.598 100.829C453.191 102.659 451.573 105.134 450.738 108.207L452.668 108.731C453.396 106.053 454.778 103.966 456.808 102.421L455.598 100.829ZM450.739 108.204L446.614 123.251L448.543 123.78L452.668 108.733L450.739 108.204ZM502.984 149.062L502.018 148.807L502.01 148.836L502.004 148.866L502.984 149.062ZM514.891 104.062L515.857 104.318L515.858 104.316L514.891 104.062ZM545.969 85.7812L545.969 84.7812L545.967 84.7813L545.969 85.7812ZM572.172 87.1406L571.401 87.7782L571.408 87.7859L571.414 87.7936L572.172 87.1406ZM572.078 151.734L571.358 151.04L571.358 151.041L572.078 151.734ZM556.938 151.734L556.218 152.429L556.23 152.442L556.243 152.454L556.938 151.734ZM555.672 99.0469H556.672V98.0469H555.672V99.0469ZM536.359 101.625L536.965 102.421L536.966 102.42L536.359 101.625ZM531.859 108.469L530.894 108.207L530.893 108.21L531.859 108.469ZM521.125 148.594L520.159 148.335L520.156 148.346L520.153 148.357L521.125 148.594ZM519.016 151.781L519.612 152.584L519.619 152.579L519.626 152.573L519.016 151.781ZM503.594 151.969L502.785 152.557L502.794 152.569L502.802 152.58L503.594 151.969ZM502.844 150.234L501.846 150.168L501.844 150.201V150.234H502.844ZM503.951 149.318L515.857 104.318L513.924 103.807L502.018 148.807L503.951 149.318ZM515.858 104.316C517.388 98.4806 520.617 94.1432 525.558 91.2369C530.53 88.3123 537.306 86.7967 545.971 86.7812L545.967 84.7813C537.1 84.7971 529.931 86.344 524.544 89.5131C519.125 92.7006 515.581 97.4881 513.923 103.809L515.858 104.316ZM545.969 86.7812H569.406V84.7812H545.969V86.7812ZM569.406 86.7812C570.177 86.7812 570.825 87.0817 571.401 87.7782L572.942 86.5031C572.019 85.387 570.823 84.7812 569.406 84.7812V86.7812ZM571.414 87.7936C572.045 88.5252 572.344 89.3268 572.344 90.2344H574.344C574.344 88.8295 573.861 87.5686 572.929 86.4877L571.414 87.7936ZM572.344 90.2344V148.594H574.344V90.2344H572.344ZM572.344 148.594C572.344 149.554 572.022 150.352 571.358 151.04L572.798 152.429C573.822 151.367 574.344 150.071 574.344 148.594H572.344ZM571.358 151.041C570.742 151.68 569.991 152 569.031 152V154C570.509 154 571.789 153.476 572.798 152.428L571.358 151.041ZM569.031 152H560.078V154H569.031V152ZM560.078 152C559.118 152 558.32 151.678 557.632 151.015L556.243 152.454C557.305 153.478 558.601 154 560.078 154V152ZM557.657 151.04C556.994 150.352 556.672 149.554 556.672 148.594H554.672C554.672 150.071 555.194 151.367 556.218 152.429L557.657 151.04ZM556.672 148.594V99.0469H554.672V148.594H556.672ZM555.672 98.0469H544.234V100.047H555.672V98.0469ZM544.234 98.0469C541.029 98.0469 538.187 98.9702 535.752 100.83L536.966 102.42C539.031 100.842 541.44 100.047 544.234 100.047V98.0469ZM535.754 100.829C533.347 102.659 531.729 105.134 530.894 108.207L532.824 108.731C533.552 106.053 534.934 103.966 536.965 102.421L535.754 100.829ZM530.893 108.21L520.159 148.335L522.091 148.852L532.825 108.727L530.893 108.21ZM520.153 148.357C519.897 149.406 519.328 150.277 518.405 150.989L519.626 152.573C520.891 151.598 521.728 150.344 522.097 148.831L520.153 148.357ZM518.419 150.979C517.477 151.679 516.526 152 515.547 152V154C517.006 154 518.367 153.509 519.612 152.584L518.419 150.979ZM515.547 152H506.031V154H515.547V152ZM506.031 152C505.159 152 504.679 151.737 504.385 151.357L502.802 152.58C503.571 153.575 504.716 154 506.031 154V152ZM504.402 151.381C503.938 150.743 503.844 150.379 503.844 150.234H501.844C501.844 151.027 502.249 151.82 502.785 152.557L504.402 151.381ZM503.842 150.301C503.871 149.857 503.914 149.513 503.965 149.259L502.004 148.866C501.93 149.237 501.879 149.674 501.846 150.168L503.842 150.301ZM581.266 148.688L580.299 148.433L580.295 148.448L580.291 148.463L581.266 148.688ZM593.031 104.062L593.998 104.317L593.999 104.316L593.031 104.062ZM624.156 85.7812V84.7812L624.154 84.7813L624.156 85.7812ZM652.281 87.0938L651.522 87.7445L651.529 87.7522L651.535 87.7598L652.281 87.0938ZM652.141 151.781L652.821 152.514L652.828 152.508L652.835 152.501L652.141 151.781ZM637 151.781L636.28 152.475L636.293 152.488L636.306 152.502L637 151.781ZM635.781 136.781H636.781V135.781H635.781V136.781ZM602.453 136.781V135.781H601.684L601.487 136.524L602.453 136.781ZM599.312 148.594L598.346 148.337L598.343 148.347L598.341 148.357L599.312 148.594ZM597.203 151.781L597.799 152.584L597.807 152.579L597.814 152.573L597.203 151.781ZM581.875 151.969L581.071 152.563L581.077 152.572L581.084 152.58L581.875 151.969ZM581.078 150.094L580.08 150.035L580.078 150.064V150.094H581.078ZM605.922 123.516L604.957 123.251L604.611 124.516H605.922V123.516ZM635.781 123.516V124.516H636.781V123.516H635.781ZM635.781 99.0469H636.781V98.0469H635.781V99.0469ZM614.547 101.625L615.152 102.421L615.154 102.42L614.547 101.625ZM610.047 108.469L611.011 108.733L611.012 108.731L610.047 108.469ZM582.233 148.942L593.998 104.317L592.064 103.808L580.299 148.433L582.233 148.942ZM593.999 104.316C595.529 98.4812 598.761 94.1437 603.71 91.2373C608.689 88.3124 615.478 86.7967 624.158 86.7812L624.154 84.7813C615.272 84.7971 608.092 86.3439 602.697 89.5127C597.27 92.7 593.721 97.4876 592.064 103.809L593.999 104.316ZM624.156 86.7812H649.422V84.7812H624.156V86.7812ZM649.422 86.7812C650.287 86.7812 650.963 87.092 651.522 87.7445L653.041 86.443C652.1 85.3455 650.869 84.7812 649.422 84.7812V86.7812ZM651.535 87.7598C652.156 88.4544 652.453 89.234 652.453 90.1406H654.453C654.453 88.7348 653.969 87.4831 653.027 86.4277L651.535 87.7598ZM652.453 90.1406V148.688H654.453V90.1406H652.453ZM652.453 148.688C652.453 149.636 652.125 150.407 651.446 151.061L652.835 152.501C653.906 151.468 654.453 150.177 654.453 148.688H652.453ZM651.46 151.048C650.774 151.685 649.972 152 649 152V154C650.465 154 651.757 153.502 652.821 152.514L651.46 151.048ZM649 152H640.188V154H649V152ZM640.188 152C639.138 152 638.333 151.676 637.694 151.061L636.306 152.502C637.355 153.511 638.674 154 640.188 154V152ZM637.72 151.088C637.105 150.448 636.781 149.643 636.781 148.594H634.781C634.781 150.107 635.27 151.427 636.28 152.475L637.72 151.088ZM636.781 148.594V136.781H634.781V148.594H636.781ZM635.781 135.781H602.453V137.781H635.781V135.781ZM601.487 136.524L598.346 148.337L600.279 148.851L603.42 137.038L601.487 136.524ZM598.341 148.357C598.085 149.406 597.516 150.277 596.592 150.989L597.814 152.573C599.078 151.598 599.915 150.344 600.284 148.831L598.341 148.357ZM596.607 150.979C595.664 151.679 594.713 152 593.734 152V154C595.193 154 596.555 153.509 597.799 152.584L596.607 150.979ZM593.734 152H584.5V154H593.734V152ZM584.5 152C583.459 152 582.94 151.711 582.666 151.357L581.084 152.58C581.873 153.601 583.104 154 584.5 154V152ZM582.679 151.374C582.197 150.721 582.078 150.309 582.078 150.094H580.078C580.078 150.941 580.491 151.779 581.071 152.563L582.679 151.374ZM582.076 150.152C582.105 149.663 582.162 149.251 582.24 148.912L580.291 148.463C580.182 148.936 580.114 149.462 580.08 150.035L582.076 150.152ZM605.922 124.516H635.781V122.516H605.922V124.516ZM636.781 123.516V99.0469H634.781V123.516H636.781ZM635.781 98.0469H622.422V100.047H635.781V98.0469ZM622.422 98.0469C619.216 98.0469 616.375 98.9702 613.94 100.83L615.154 102.42C617.219 100.842 619.627 100.047 622.422 100.047V98.0469ZM613.942 100.829C611.535 102.659 609.917 105.134 609.082 108.207L611.012 108.731C611.74 106.053 613.121 103.966 615.152 102.421L613.942 100.829ZM609.082 108.204L604.957 123.251L606.886 123.78L611.011 108.733L609.082 108.204ZM719.312 151.734L718.784 152.583L718.791 152.588L718.798 152.592L719.312 151.734ZM716.031 148.594L715.185 149.127L715.189 149.133L716.031 148.594ZM707.781 135.516L706.93 136.041L706.935 136.049L707.781 135.516ZM701.828 128.344L701.198 129.12L701.205 129.126L701.828 128.344ZM684.531 125.906V124.906H683.531V125.906H684.531ZM683.219 151.781L683.912 152.502L683.913 152.501L683.219 151.781ZM668.172 151.688L667.452 152.382L667.459 152.388L667.465 152.395L668.172 151.688ZM683.219 87.0469L682.487 87.7283L682.493 87.7349L682.499 87.7415L683.219 87.0469ZM684.531 112.688H683.531V113.688H684.531V112.688ZM701.828 110.438L701.246 109.625L701.24 109.629L701.828 110.438ZM707.781 103.172L706.909 102.682L706.909 102.683L707.781 103.172ZM715.047 90.2344L715.919 90.724L715.922 90.7177L715.047 90.2344ZM721.797 85.6875V84.6874L721.786 84.6876L721.797 85.6875ZM734.078 90.2344L734.954 90.7177L734.957 90.7107L734.961 90.7035L734.078 90.2344ZM723.906 108.656L723.031 108.173L723.029 108.177L723.906 108.656ZM718.938 115.312L718.249 114.587L718.243 114.593L718.938 115.312ZM711.812 119.016L711.575 118.044L711.605 119.994L711.812 119.016ZM718.141 122.906L717.433 123.613L717.439 123.618L718.141 122.906ZM723.906 129.938L724.753 129.406L724.748 129.398L724.743 129.39L723.906 129.938ZM735.625 148.594L736.488 148.088L736.48 148.075L736.472 148.062L735.625 148.594ZM735.422 150.938C735.422 151.423 735.286 151.62 735.167 151.721C735.015 151.849 734.68 152 733.984 152V154C734.914 154 735.798 153.807 736.458 153.248C737.151 152.662 737.422 151.827 737.422 150.938H735.422ZM733.984 152H723.25V154H733.984V152ZM723.25 152C722.265 152 721.13 151.659 719.827 150.877L718.798 152.592C720.308 153.498 721.798 154 723.25 154V152ZM719.841 150.885C718.543 150.078 717.563 149.131 716.873 148.054L715.189 149.133C716.062 150.494 717.27 151.641 718.784 152.583L719.841 150.885ZM716.877 148.06L708.627 134.982L706.935 136.049L715.185 149.127L716.877 148.06ZM708.632 134.99C706.628 131.746 704.573 129.252 702.451 127.562L701.205 129.126C703.083 130.623 704.997 132.91 706.93 136.041L708.632 134.99ZM702.459 127.568C700.264 125.784 697.629 124.906 694.609 124.906V126.906C697.215 126.906 699.392 127.653 701.198 129.12L702.459 127.568ZM694.609 124.906H684.531V126.906H694.609V124.906ZM683.531 125.906V148.688H685.531V125.906H683.531ZM683.531 148.688C683.531 149.636 683.204 150.407 682.525 151.061L683.913 152.501C684.984 151.468 685.531 150.177 685.531 148.688H683.531ZM682.525 151.061C681.876 151.686 681.097 152 680.125 152V154C681.591 154 682.874 153.501 683.912 152.502L682.525 151.061ZM680.125 152H671.312V154H680.125V152ZM671.312 152C670.363 152 669.57 151.671 668.879 150.98L667.465 152.395C668.524 153.454 669.824 154 671.312 154V152ZM668.891 150.993C668.19 150.266 667.859 149.45 667.859 148.5H665.859C665.859 149.987 666.404 151.296 667.452 152.382L668.891 150.993ZM667.859 148.5V90.2344H665.859V148.5H667.859ZM667.859 90.2344C667.859 89.2843 668.19 88.4683 668.891 87.7415L667.452 86.3523C666.404 87.438 665.859 88.747 665.859 90.2344H667.859ZM668.891 87.7415C669.585 87.023 670.375 86.6875 671.312 86.6875V84.6875C669.812 84.6875 668.509 85.2582 667.452 86.3523L668.891 87.7415ZM671.312 86.6875H680.125V84.6875H671.312V86.6875ZM680.125 86.6875C681.061 86.6875 681.829 87.0215 682.487 87.7283L683.951 86.3655C682.921 85.2597 681.626 84.6875 680.125 84.6875V86.6875ZM682.499 87.7415C683.201 88.4683 683.531 89.2843 683.531 90.2344H685.531C685.531 88.747 684.986 87.438 683.938 86.3523L682.499 87.7415ZM683.531 90.2344V112.688H685.531V90.2344H683.531ZM684.531 113.688H694.609V111.688H684.531V113.688ZM694.609 113.688C697.553 113.688 700.169 112.88 702.416 111.246L701.24 109.629C699.362 110.995 697.166 111.688 694.609 111.688V113.688ZM702.411 111.25C704.667 109.634 706.739 107.075 708.653 103.661L706.909 102.683C705.074 105.956 703.177 108.241 701.246 109.625L702.411 111.25ZM708.653 103.662L715.919 90.724L714.175 89.7447L706.909 102.682L708.653 103.662ZM715.922 90.7177C717.447 87.9565 719.404 86.7139 721.808 86.6874L721.786 84.6876C718.502 84.7236 715.96 86.5122 714.171 89.7511L715.922 90.7177ZM721.797 86.6875H732.625V84.6875H721.797V86.6875ZM732.625 86.6875C733.251 86.6875 733.534 86.8274 733.654 86.9323C733.748 87.0148 733.875 87.1914 733.875 87.6562H735.875C735.875 86.8086 735.627 86.0008 734.971 85.4271C734.341 84.8758 733.499 84.6875 732.625 84.6875V86.6875ZM733.875 87.6562C733.875 88.1436 733.689 88.8347 733.195 89.7652L734.961 90.7035C735.529 89.634 735.875 88.6064 735.875 87.6562H733.875ZM733.203 89.751L723.031 108.173L724.782 109.14L734.954 90.7177L733.203 89.751ZM723.029 108.177C721.6 110.791 720.004 112.922 718.249 114.587L719.626 116.038C721.559 114.203 723.275 111.896 724.784 109.136L723.029 108.177ZM718.243 114.593C716.581 116.198 714.375 117.359 711.575 118.044L712.05 119.987C715.125 119.235 717.669 117.927 719.632 116.032L718.243 114.593ZM711.605 119.994C713.411 120.377 715.356 121.536 717.434 123.613L718.848 122.199C716.613 119.964 714.339 118.529 712.02 118.037L711.605 119.994ZM717.439 123.618C719.576 125.726 721.453 128.014 723.069 130.485L724.743 129.39C723.047 126.798 721.08 124.399 718.843 122.194L717.439 123.618ZM723.059 130.469L734.778 149.126L736.472 148.062L724.753 129.406L723.059 130.469ZM734.762 149.099C735.252 149.936 735.422 150.536 735.422 150.938H737.422C737.422 150.027 737.06 149.064 736.488 148.088L734.762 149.099ZM804.531 97.8281L805.225 98.5484L805.232 98.5419L805.238 98.5352L804.531 97.8281ZM780.438 99.0469V98.0469H779.438V99.0469H780.438ZM779.125 151.781L779.819 152.502L779.819 152.501L779.125 151.781ZM764.031 151.781L763.324 152.488L763.337 152.501L763.351 152.514L764.031 151.781ZM762.766 99.0469H763.766V98.0469H762.766V99.0469ZM738.672 97.8281L737.965 98.5352L737.971 98.5419L737.978 98.5484L738.672 97.8281ZM738.406 94.6406V90.2344H736.406V94.6406H738.406ZM738.406 90.2344C738.406 89.1967 738.738 88.3954 739.379 87.754L737.965 86.3398C736.919 87.3858 736.406 88.7095 736.406 90.2344H738.406ZM739.379 87.754C740.02 87.1125 740.822 86.7812 741.859 86.7812V84.7812C740.335 84.7812 739.011 85.2937 737.965 86.3398L739.379 87.754ZM741.859 86.7812H801.344V84.7812H741.859V86.7812ZM801.344 86.7812C802.381 86.7812 803.183 87.1125 803.824 87.754L805.238 86.3398C804.192 85.2937 802.869 84.7812 801.344 84.7812V86.7812ZM803.824 87.754C804.466 88.3954 804.797 89.1967 804.797 90.2344H806.797C806.797 88.7095 806.284 87.3858 805.238 86.3398L803.824 87.754ZM804.797 90.2344V94.6406H806.797V90.2344H804.797ZM804.797 94.6406C804.797 95.6783 804.466 96.4796 803.824 97.121L805.238 98.5352C806.284 97.4892 806.797 96.1655 806.797 94.6406H804.797ZM803.838 97.1078C803.198 97.7233 802.393 98.0469 801.344 98.0469V100.047C802.857 100.047 804.177 99.558 805.225 98.5484L803.838 97.1078ZM801.344 98.0469H780.438V100.047H801.344V98.0469ZM779.438 99.0469V148.688H781.438V99.0469H779.438ZM779.438 148.688C779.438 149.636 779.11 150.407 778.431 151.061L779.819 152.501C780.89 151.468 781.438 150.177 781.438 148.688H779.438ZM778.431 151.061C777.782 151.686 777.003 152 776.031 152V154C777.497 154 778.78 153.501 779.819 152.502L778.431 151.061ZM776.031 152H767.172V154H776.031V152ZM767.172 152C766.2 152 765.398 151.685 764.712 151.048L763.351 152.514C764.415 153.502 765.706 154 767.172 154V152ZM764.738 151.074C764.087 150.422 763.766 149.647 763.766 148.688H761.766C761.766 150.165 762.288 151.453 763.324 152.488L764.738 151.074ZM763.766 148.688V99.0469H761.766V148.688H763.766ZM762.766 98.0469H741.859V100.047H762.766V98.0469ZM741.859 98.0469C740.81 98.0469 740.005 97.7233 739.366 97.1078L737.978 98.5484C739.027 99.558 740.346 100.047 741.859 100.047V98.0469ZM739.379 97.121C738.738 96.4796 738.406 95.6783 738.406 94.6406H736.406C736.406 96.1655 736.919 97.4892 737.965 98.5352L739.379 97.121ZM829.281 87.0469L828.574 87.754L828.581 87.7604L828.587 87.7667L829.281 87.0469ZM830.594 137.062H829.594V140.839L831.463 137.557L830.594 137.062ZM857.266 90.2344L856.404 89.7264L856.4 89.7329L856.397 89.7395L857.266 90.2344ZM880.562 151.734L881.257 152.454L881.263 152.448L881.27 152.441L880.562 151.734ZM866.031 151.734L865.311 152.429L865.324 152.442L865.337 152.454L866.031 151.734ZM864.766 105.094H865.766V101.276L863.894 104.603L864.766 105.094ZM840.297 148.594L841.158 149.102L841.163 149.093L841.168 149.084L840.297 148.594ZM837.25 151.734L837.791 152.576L837.798 152.571L837.805 152.566L837.25 151.734ZM814.797 151.734L814.09 152.441L814.096 152.448L814.103 152.454L814.797 151.734ZM814.484 148.594V90.2344H812.484V148.594H814.484ZM814.484 90.2344C814.484 89.1967 814.816 88.3954 815.457 87.754L814.043 86.3398C812.997 87.3858 812.484 88.7095 812.484 90.2344H814.484ZM815.457 87.754C816.099 87.1125 816.9 86.7812 817.938 86.7812V84.7812C816.413 84.7812 815.089 85.2937 814.043 86.3398L815.457 87.754ZM817.938 86.7812H826.188V84.7812H817.938V86.7812ZM826.188 86.7812C827.147 86.7812 827.922 87.1022 828.574 87.754L829.988 86.3398C828.953 85.304 827.665 84.7812 826.188 84.7812V86.7812ZM828.587 87.7667C829.266 88.4214 829.594 89.1926 829.594 90.1406H831.594C831.594 88.6512 831.046 87.3598 829.975 86.327L828.587 87.7667ZM829.594 90.1406V137.062H831.594V90.1406H829.594ZM831.463 137.557L858.135 90.7293L856.397 89.7395L829.725 136.568L831.463 137.557ZM858.127 90.7424C858.768 89.6562 859.65 88.7125 860.792 87.913L859.645 86.2745C858.287 87.225 857.201 88.3751 856.404 89.7264L858.127 90.7424ZM860.792 87.913C861.944 87.1064 862.902 86.7812 863.688 86.7812V84.7812C862.348 84.7812 860.993 85.3311 859.645 86.2745L860.792 87.913ZM863.688 86.7812H877.516V84.7812H863.688V86.7812ZM877.516 86.7812C878.464 86.7812 879.235 87.1089 879.89 87.7879L881.329 86.3996C880.296 85.3286 879.005 84.7812 877.516 84.7812V86.7812ZM879.89 87.7879C880.553 88.476 880.875 89.2738 880.875 90.2344H882.875C882.875 88.7575 882.353 87.4615 881.329 86.3996L879.89 87.7879ZM880.875 90.2344V148.594H882.875V90.2344H880.875ZM880.875 148.594C880.875 149.543 880.546 150.337 879.855 151.027L881.27 152.441C882.329 151.382 882.875 150.082 882.875 148.594H880.875ZM879.868 151.015C879.18 151.678 878.382 152 877.422 152V154C878.899 154 880.195 153.478 881.257 152.454L879.868 151.015ZM877.422 152H869.172V154H877.422V152ZM869.172 152C868.211 152 867.413 151.678 866.725 151.015L865.337 152.454C866.399 153.478 867.695 154 869.172 154V152ZM866.751 151.04C866.088 150.352 865.766 149.554 865.766 148.594H863.766C863.766 150.071 864.287 151.367 865.311 152.429L866.751 151.04ZM865.766 148.594V105.094H863.766V148.594H865.766ZM863.894 104.603L839.425 148.103L841.168 149.084L865.637 105.584L863.894 104.603ZM839.436 148.086C838.802 149.161 837.897 150.101 836.695 150.902L837.805 152.566C839.228 151.618 840.355 150.464 841.158 149.102L839.436 148.086ZM836.709 150.893C835.513 151.662 834.433 152 833.453 152V154C834.911 154 836.362 153.494 837.791 152.576L836.709 150.893ZM833.453 152H817.938V154H833.453V152ZM817.938 152C816.977 152 816.179 151.678 815.491 151.015L814.103 152.454C815.165 153.478 816.461 154 817.938 154V152ZM815.504 151.027C814.813 150.337 814.484 149.543 814.484 148.594H812.484C812.484 150.082 813.03 151.382 814.09 152.441L815.504 151.027ZM947.781 151.734L947.253 152.583L947.26 152.588L947.267 152.592L947.781 151.734ZM944.5 148.594L943.654 149.127L943.658 149.133L944.5 148.594ZM936.25 135.516L935.399 136.041L935.404 136.049L936.25 135.516ZM930.297 128.344L929.666 129.12L929.674 129.126L930.297 128.344ZM913 125.906V124.906H912V125.906H913ZM911.688 151.781L912.381 152.502L912.382 152.501L911.688 151.781ZM896.641 151.688L895.921 152.382L895.927 152.388L895.934 152.395L896.641 151.688ZM911.688 87.0469L910.956 87.7283L910.962 87.7349L910.968 87.7415L911.688 87.0469ZM913 112.688H912V113.688H913V112.688ZM930.297 110.438L929.714 109.625L929.709 109.629L930.297 110.438ZM936.25 103.172L935.378 102.682L935.378 102.683L936.25 103.172ZM943.516 90.2344L944.388 90.724L944.391 90.7177L943.516 90.2344ZM950.266 85.6875V84.6874L950.255 84.6876L950.266 85.6875ZM962.547 90.2344L963.422 90.7177L963.426 90.7107L963.43 90.7035L962.547 90.2344ZM952.375 108.656L951.5 108.173L951.497 108.177L952.375 108.656ZM947.406 115.312L946.718 114.587L946.712 114.593L947.406 115.312ZM940.281 119.016L940.044 118.044L940.074 119.994L940.281 119.016ZM946.609 122.906L945.902 123.613L945.907 123.618L946.609 122.906ZM952.375 129.938L953.222 129.406L953.217 129.398L953.212 129.39L952.375 129.938ZM964.094 148.594L964.956 148.088L964.949 148.075L964.941 148.062L964.094 148.594ZM963.891 150.938C963.891 151.423 963.755 151.62 963.635 151.721C963.484 151.849 963.148 152 962.453 152V154C963.383 154 964.266 153.807 964.927 153.248C965.62 152.662 965.891 151.827 965.891 150.938H963.891ZM962.453 152H951.719V154H962.453V152ZM951.719 152C950.734 152 949.599 151.659 948.296 150.877L947.267 152.592C948.776 153.498 950.266 154 951.719 154V152ZM948.31 150.885C947.011 150.078 946.032 149.131 945.342 148.054L943.658 149.133C944.53 150.494 945.739 151.641 947.253 152.583L948.31 150.885ZM945.346 148.06L937.096 134.982L935.404 136.049L943.654 149.127L945.346 148.06ZM937.101 134.99C935.097 131.746 933.042 129.252 930.92 127.562L929.674 129.126C931.552 130.623 933.465 132.91 935.399 136.041L937.101 134.99ZM930.927 127.568C928.733 125.784 926.098 124.906 923.078 124.906V126.906C925.683 126.906 927.861 127.653 929.666 129.12L930.927 127.568ZM923.078 124.906H913V126.906H923.078V124.906ZM912 125.906V148.688H914V125.906H912ZM912 148.688C912 149.636 911.672 150.407 910.993 151.061L912.382 152.501C913.453 151.468 914 150.177 914 148.688H912ZM910.994 151.061C910.345 151.686 909.565 152 908.594 152V154C910.06 154 911.343 153.501 912.381 152.502L910.994 151.061ZM908.594 152H899.781V154H908.594V152ZM899.781 152C898.832 152 898.038 151.671 897.348 150.98L895.934 152.395C896.993 153.454 898.293 154 899.781 154V152ZM897.36 150.993C896.658 150.266 896.328 149.45 896.328 148.5H894.328C894.328 149.987 894.873 151.296 895.921 152.382L897.36 150.993ZM896.328 148.5V90.2344H894.328V148.5H896.328ZM896.328 90.2344C896.328 89.2843 896.658 88.4683 897.36 87.7415L895.921 86.3523C894.873 87.438 894.328 88.747 894.328 90.2344H896.328ZM897.36 87.7415C898.054 87.023 898.844 86.6875 899.781 86.6875V84.6875C898.281 84.6875 896.978 85.2582 895.921 86.3523L897.36 87.7415ZM899.781 86.6875H908.594V84.6875H899.781V86.6875ZM908.594 86.6875C909.53 86.6875 910.298 87.0215 910.956 87.7283L912.419 86.3655C911.39 85.2597 910.095 84.6875 908.594 84.6875V86.6875ZM910.968 87.7415C911.67 88.4683 912 89.2843 912 90.2344H914C914 88.747 913.455 87.438 912.407 86.3523L910.968 87.7415ZM912 90.2344V112.688H914V90.2344H912ZM913 113.688H923.078V111.688H913V113.688ZM923.078 113.688C926.022 113.688 928.638 112.88 930.885 111.246L929.709 109.629C927.831 110.995 925.634 111.688 923.078 111.688V113.688ZM930.879 111.25C933.136 109.634 935.208 107.075 937.122 103.661L935.378 102.683C933.542 105.956 931.645 108.241 929.714 109.625L930.879 111.25ZM937.122 103.662L944.388 90.724L942.644 89.7447L935.378 102.682L937.122 103.662ZM944.391 90.7177C945.915 87.9565 947.873 86.7139 950.277 86.6874L950.255 84.6876C946.971 84.7236 944.428 86.5122 942.64 89.7511L944.391 90.7177ZM950.266 86.6875H961.094V84.6875H950.266V86.6875ZM961.094 86.6875C961.72 86.6875 962.003 86.8274 962.123 86.9323C962.217 87.0148 962.344 87.1914 962.344 87.6562H964.344C964.344 86.8086 964.095 86.0008 963.44 85.4271C962.81 84.8758 961.968 84.6875 961.094 84.6875V86.6875ZM962.344 87.6562C962.344 88.1436 962.158 88.8347 961.664 89.7652L963.43 90.7035C963.998 89.634 964.344 88.6064 964.344 87.6562H962.344ZM961.671 89.751L951.5 108.173L953.25 109.14L963.422 90.7177L961.671 89.751ZM951.497 108.177C950.069 110.791 948.473 112.922 946.718 114.587L948.095 116.038C950.027 114.203 951.744 111.896 953.253 109.136L951.497 108.177ZM946.712 114.593C945.05 116.198 942.844 117.359 940.044 118.044L940.519 119.987C943.594 119.235 946.138 117.927 948.101 116.032L946.712 114.593ZM940.074 119.994C941.88 120.377 943.825 121.536 945.902 123.613L947.316 122.199C945.081 119.964 942.807 118.529 940.489 118.037L940.074 119.994ZM945.907 123.618C948.045 125.726 949.922 128.014 951.538 130.485L953.212 129.39C951.516 126.798 949.549 124.399 947.311 122.194L945.907 123.618ZM951.528 130.469L963.247 149.126L964.941 148.062L953.222 129.406L951.528 130.469ZM963.231 149.099C963.721 149.936 963.891 150.536 963.891 150.938H965.891C965.891 150.027 965.529 149.064 964.956 148.088L963.231 149.099ZM966.109 148.688L965.142 148.433L965.138 148.448L965.135 148.463L966.109 148.688ZM977.875 104.062L978.842 104.317L978.842 104.316L977.875 104.062ZM1009 85.7812L1009 84.7812L1009 84.7813L1009 85.7812ZM1037.12 87.0938L1036.37 87.7445L1036.37 87.7522L1036.38 87.7598L1037.12 87.0938ZM1036.98 151.781L1037.66 152.514L1037.67 152.508L1037.68 152.501L1036.98 151.781ZM1021.84 151.781L1021.12 152.475L1021.14 152.488L1021.15 152.502L1021.84 151.781ZM1020.62 136.781H1021.62V135.781H1020.62V136.781ZM987.297 136.781V135.781H986.528L986.33 136.524L987.297 136.781ZM984.156 148.594L983.19 148.337L983.187 148.347L983.185 148.357L984.156 148.594ZM982.047 151.781L982.643 152.584L982.65 152.579L982.658 152.573L982.047 151.781ZM966.719 151.969L965.915 152.563L965.921 152.572L965.927 152.58L966.719 151.969ZM965.922 150.094L964.924 150.035L964.922 150.064V150.094H965.922ZM990.766 123.516L989.801 123.251L989.455 124.516H990.766V123.516ZM1020.62 123.516V124.516H1021.62V123.516H1020.62ZM1020.62 99.0469H1021.62V98.0469H1020.62V99.0469ZM999.391 101.625L999.996 102.421L999.998 102.42L999.391 101.625ZM994.891 108.469L995.855 108.733L995.856 108.731L994.891 108.469ZM967.076 148.942L978.842 104.317L976.908 103.808L965.142 148.433L967.076 148.942ZM978.842 104.316C980.372 98.4812 983.605 94.1437 988.553 91.2373C993.533 88.3124 1000.32 86.7967 1009 86.7812L1009 84.7813C1000.12 84.7971 992.936 86.3439 987.54 89.5127C982.114 92.7 978.565 97.4876 976.908 103.809L978.842 104.316ZM1009 86.7812H1034.27V84.7812H1009V86.7812ZM1034.27 86.7812C1035.13 86.7812 1035.81 87.092 1036.37 87.7445L1037.88 86.443C1036.94 85.3455 1035.71 84.7812 1034.27 84.7812V86.7812ZM1036.38 87.7598C1037 88.4544 1037.3 89.234 1037.3 90.1406H1039.3C1039.3 88.7348 1038.81 87.4831 1037.87 86.4277L1036.38 87.7598ZM1037.3 90.1406V148.688H1039.3V90.1406H1037.3ZM1037.3 148.688C1037.3 149.636 1036.97 150.407 1036.29 151.061L1037.68 152.501C1038.75 151.468 1039.3 150.177 1039.3 148.688H1037.3ZM1036.3 151.048C1035.62 151.685 1034.82 152 1033.84 152V154C1035.31 154 1036.6 153.502 1037.66 152.514L1036.3 151.048ZM1033.84 152H1025.03V154H1033.84V152ZM1025.03 152C1023.98 152 1023.18 151.676 1022.54 151.061L1021.15 152.502C1022.2 153.511 1023.52 154 1025.03 154V152ZM1022.56 151.088C1021.95 150.448 1021.62 149.643 1021.62 148.594H1019.62C1019.62 150.107 1020.11 151.427 1021.12 152.475L1022.56 151.088ZM1021.62 148.594V136.781H1019.62V148.594H1021.62ZM1020.62 135.781H987.297V137.781H1020.62V135.781ZM986.33 136.524L983.19 148.337L985.123 148.851L988.263 137.038L986.33 136.524ZM983.185 148.357C982.929 149.406 982.359 150.277 981.436 150.989L982.658 152.573C983.922 151.598 984.759 150.344 985.128 148.831L983.185 148.357ZM981.451 150.979C980.508 151.679 979.557 152 978.578 152V154C980.037 154 981.398 153.509 982.643 152.584L981.451 150.979ZM978.578 152H969.344V154H978.578V152ZM969.344 152C968.303 152 967.784 151.711 967.51 151.357L965.927 152.58C966.716 153.601 967.947 154 969.344 154V152ZM967.523 151.374C967.04 150.721 966.922 150.309 966.922 150.094H964.922C964.922 150.941 965.335 151.779 965.915 152.563L967.523 151.374ZM966.92 150.152C966.949 149.663 967.006 149.251 967.084 148.912L965.135 148.463C965.026 148.936 964.957 149.462 964.924 150.035L966.92 150.152ZM990.766 124.516H1020.62V122.516H990.766V124.516ZM1021.62 123.516V99.0469H1019.62V123.516H1021.62ZM1020.62 98.0469H1007.27V100.047H1020.62V98.0469ZM1007.27 98.0469C1004.06 98.0469 1001.22 98.9702 998.784 100.83L999.998 102.42C1002.06 100.842 1004.47 100.047 1007.27 100.047V98.0469ZM998.785 100.829C996.379 102.659 994.76 105.134 993.926 108.207L995.856 108.731C996.583 106.053 997.965 103.966 999.996 102.421L998.785 100.829ZM993.926 108.204L989.801 123.251L991.73 123.78L995.855 108.733L993.926 108.204ZM583.469 267.078L582.777 267.801L582.779 267.803L583.469 267.078ZM583.469 215.75L584.16 216.473L584.16 216.472L583.469 215.75ZM638.828 212.938L638.267 213.765L638.269 213.767L638.828 212.938ZM645.391 232.062L645.972 232.876L645.979 232.871L645.987 232.865L645.391 232.062ZM629.922 228.078L630.829 227.657L630.827 227.654L629.922 228.078ZM596.125 257.75L595.352 258.385L595.355 258.389L596.125 257.75ZM630.859 254.75L631.767 255.169L631.768 255.168L630.859 254.75ZM646.656 251.188L645.864 251.798L645.87 251.805L645.875 251.812L646.656 251.188ZM639.812 269.891L640.371 270.72L640.374 270.718L639.812 269.891ZM584.16 266.356C578.65 261.084 575.797 252.85 575.797 241.438H573.797C573.797 253.15 576.725 262.01 582.777 267.801L584.16 266.356ZM575.797 241.438C575.797 229.993 578.65 221.744 584.16 216.473L582.777 215.027C576.725 220.818 573.797 229.694 573.797 241.438H575.797ZM584.16 216.472C589.718 211.153 598.129 208.406 609.578 208.406V206.406C597.84 206.406 588.844 209.222 582.777 215.028L584.16 216.472ZM609.578 208.406H620.031V206.406H609.578V208.406ZM620.031 208.406C626.942 208.406 633.008 210.199 638.267 213.765L639.389 212.11C633.773 208.301 627.308 206.406 620.031 206.406V208.406ZM638.269 213.767C643.472 217.275 646.031 222.016 646.031 228.078H648.031C648.031 221.328 645.122 215.975 639.387 212.108L638.269 213.767ZM646.031 228.078C646.031 229.726 645.551 230.698 644.794 231.26L645.987 232.865C647.418 231.802 648.031 230.118 648.031 228.078H646.031ZM644.809 231.249C643.834 231.945 642.971 232.234 642.203 232.234V234.234C643.498 234.234 644.76 233.742 645.972 232.876L644.809 231.249ZM642.203 232.234H636.625V234.234H642.203V232.234ZM636.625 232.234C634.268 232.234 632.321 230.876 630.829 227.657L629.015 228.499C630.71 232.156 633.232 234.234 636.625 234.234V232.234ZM630.827 227.654C629.607 225.048 627.954 223.037 625.845 221.682C623.735 220.327 621.235 219.672 618.391 219.672V221.672C620.921 221.672 623.03 222.251 624.764 223.365C626.499 224.479 627.924 226.171 629.016 228.502L630.827 227.654ZM618.391 219.672H610.047V221.672H618.391V219.672ZM610.047 219.672C603.128 219.672 598.09 221.144 595.355 224.44L596.895 225.717C599.035 223.137 603.278 221.672 610.047 221.672V219.672ZM595.355 224.44C592.675 227.67 591.469 233.429 591.469 241.391H593.469C593.469 233.477 594.7 228.362 596.895 225.717L595.355 224.44ZM591.469 241.391C591.469 249.354 592.676 255.125 595.352 258.385L596.898 257.115C594.699 254.437 593.469 249.302 593.469 241.391H591.469ZM595.355 258.389C598.09 261.684 603.128 263.156 610.047 263.156V261.156C603.278 261.156 599.035 259.691 596.895 257.111L595.355 258.389ZM610.047 263.156H619.375V261.156H610.047V263.156ZM619.375 263.156C622.22 263.156 624.716 262.501 626.819 261.145C628.921 259.789 630.563 257.777 631.767 255.169L629.952 254.331C628.875 256.661 627.461 258.351 625.735 259.464C624.01 260.577 621.905 261.156 619.375 261.156V263.156ZM631.768 255.168C633.26 251.921 635.222 250.547 637.609 250.547V248.547C634.185 248.547 631.646 250.642 629.951 254.332L631.768 255.168ZM637.609 250.547H643.188V248.547H637.609V250.547ZM643.188 250.547C644.369 250.547 645.224 250.967 645.864 251.798L647.448 250.577C646.401 249.22 644.944 248.547 643.188 248.547V250.547ZM645.875 251.812C646.623 252.746 646.969 253.717 646.969 254.75H648.969C648.969 253.22 648.44 251.816 647.437 250.563L645.875 251.812ZM646.969 254.75C646.969 260.815 644.423 265.556 639.251 269.063L640.374 270.718C646.077 266.85 648.969 261.498 648.969 254.75H646.969ZM639.255 269.061C633.996 272.597 627.928 274.375 621.016 274.375V276.375C628.291 276.375 634.754 274.497 640.37 270.72L639.255 269.061ZM621.016 274.375H609.578V276.375H621.016V274.375ZM609.578 274.375C598.127 274.375 589.716 271.643 584.158 266.354L582.779 267.803C588.846 273.576 597.841 276.375 609.578 276.375V274.375ZM720.344 215.844L719.573 216.48L719.575 216.483L720.344 215.844ZM717.719 239.281L717.087 238.506L715.924 239.453L717.246 240.162L717.719 239.281ZM719.5 269.75L720.091 270.557L720.092 270.556L719.5 269.75ZM658.422 273.734L657.715 274.441L657.721 274.448L657.728 274.454L658.422 273.734ZM674.781 262.344H673.781V263.344H674.781V262.344ZM674.781 246.219V245.219H673.781V246.219H674.781ZM674.781 233.891H673.781V234.891H674.781V233.891ZM704.594 232.156L705.291 232.873L705.301 232.863L704.594 232.156ZM674.781 220.484V219.484H673.781V220.484H674.781ZM658.109 212.234C658.109 211.285 658.438 210.492 659.129 209.801L657.715 208.387C656.655 209.446 656.109 210.746 656.109 212.234H658.109ZM659.129 209.801C659.82 209.11 660.613 208.781 661.562 208.781V206.781C660.074 206.781 658.774 207.327 657.715 208.387L659.129 209.801ZM661.562 208.781H699.672V206.781H661.562V208.781ZM699.672 208.781C708.825 208.781 715.385 211.408 719.573 216.48L721.115 215.207C716.428 209.53 709.206 206.781 699.672 206.781V208.781ZM719.575 216.483C721.866 219.238 723.047 222.795 723.047 227.234H725.047C725.047 222.424 723.759 218.387 721.113 215.204L719.575 216.483ZM723.047 227.234C723.047 231.471 721.121 235.219 717.087 238.506L718.35 240.056C722.754 236.468 725.047 232.185 725.047 227.234H723.047ZM717.246 240.162C720.114 241.701 722.219 243.639 723.611 245.96C725.004 248.281 725.719 251.042 725.719 254.281H727.719C727.719 250.739 726.934 247.61 725.326 244.931C723.719 242.252 721.323 240.08 718.191 238.4L717.246 240.162ZM725.719 254.281C725.719 260.794 723.427 265.629 718.908 268.944L720.092 270.556C725.198 266.809 727.719 261.331 727.719 254.281H725.719ZM718.909 268.943C714.328 272.297 708.67 274 701.875 274V276C709.018 276 715.109 274.203 720.091 270.557L718.909 268.943ZM701.875 274H661.562V276H701.875V274ZM661.562 274C660.602 274 659.804 273.678 659.116 273.015L657.728 274.454C658.79 275.478 660.086 276 661.562 276V274ZM659.129 273.027C658.438 272.337 658.109 271.543 658.109 270.594H656.109C656.109 272.082 656.655 273.382 657.715 274.441L659.129 273.027ZM658.109 270.594V212.234H656.109V270.594H658.109ZM674.781 263.344H701.594V261.344H674.781V263.344ZM701.594 263.344C704.209 263.344 706.355 262.554 707.872 260.853L706.378 259.522C705.333 260.696 703.791 261.344 701.594 261.344V263.344ZM707.872 260.853C709.36 259.183 710.047 256.952 710.047 254.281H708.047C708.047 256.611 707.453 258.317 706.378 259.522L707.872 260.853ZM710.047 254.281C710.047 251.611 709.36 249.379 707.872 247.71L706.378 249.04C707.453 250.246 708.047 251.952 708.047 254.281H710.047ZM707.872 247.71C706.355 246.008 704.209 245.219 701.594 245.219V247.219C703.791 247.219 705.333 247.867 706.378 249.04L707.872 247.71ZM701.594 245.219H674.781V247.219H701.594V245.219ZM673.781 246.219V262.344H675.781V246.219H673.781ZM674.781 234.891H699.859V232.891H674.781V234.891ZM699.859 234.891C702.036 234.891 703.883 234.244 705.291 232.873L703.896 231.44C702.93 232.381 701.62 232.891 699.859 232.891V234.891ZM705.301 232.863C706.72 231.444 707.375 229.524 707.375 227.234H705.375C705.375 229.132 704.843 230.493 703.887 231.449L705.301 232.863ZM707.375 227.234C707.375 224.918 706.722 222.98 705.301 221.559L703.887 222.973C704.84 223.926 705.375 225.301 705.375 227.234H707.375ZM705.301 221.559C703.894 220.151 702.044 219.484 699.859 219.484V221.484C701.612 221.484 702.919 222.005 703.887 222.973L705.301 221.559ZM699.859 219.484H674.781V221.484H699.859V219.484ZM673.781 220.484V233.891H675.781V220.484H673.781ZM730.797 270.688L729.83 270.433L729.826 270.448L729.822 270.463L730.797 270.688ZM742.562 226.062L743.529 226.317L743.53 226.316L742.562 226.062ZM773.688 207.781V206.781L773.686 206.781L773.688 207.781ZM801.812 209.094L801.053 209.745L801.06 209.752L801.067 209.76L801.812 209.094ZM801.672 273.781L802.352 274.514L802.359 274.508L802.366 274.501L801.672 273.781ZM786.531 273.781L785.811 274.475L785.824 274.488L785.838 274.502L786.531 273.781ZM785.312 258.781H786.312V257.781H785.312V258.781ZM751.984 258.781V257.781H751.216L751.018 258.524L751.984 258.781ZM748.844 270.594L747.877 270.337L747.875 270.347L747.872 270.357L748.844 270.594ZM746.734 273.781L747.331 274.584L747.338 274.579L747.345 274.573L746.734 273.781ZM731.406 273.969L730.602 274.563L730.608 274.572L730.615 274.58L731.406 273.969ZM730.609 272.094L729.611 272.035L729.609 272.064V272.094H730.609ZM755.453 245.516L754.489 245.251L754.142 246.516H755.453V245.516ZM785.312 245.516V246.516H786.312V245.516H785.312ZM785.312 221.047H786.312V220.047H785.312V221.047ZM764.078 223.625L764.683 224.421L764.685 224.42L764.078 223.625ZM759.578 230.469L760.543 230.733L760.543 230.731L759.578 230.469ZM731.764 270.942L743.529 226.317L741.596 225.808L729.83 270.433L731.764 270.942ZM743.53 226.316C745.06 220.481 748.292 216.144 753.241 213.237C758.221 210.312 765.009 208.797 773.689 208.781L773.686 206.781C764.803 206.797 757.623 208.344 752.228 211.513C746.801 214.7 743.253 219.488 741.595 225.809L743.53 226.316ZM773.688 208.781H798.953V206.781H773.688V208.781ZM798.953 208.781C799.819 208.781 800.494 209.092 801.053 209.745L802.572 208.443C801.631 207.345 800.4 206.781 798.953 206.781V208.781ZM801.067 209.76C801.687 210.454 801.984 211.234 801.984 212.141H803.984C803.984 210.735 803.501 209.483 802.558 208.428L801.067 209.76ZM801.984 212.141V270.688H803.984V212.141H801.984ZM801.984 270.688C801.984 271.636 801.657 272.407 800.978 273.061L802.366 274.501C803.437 273.468 803.984 272.177 803.984 270.688H801.984ZM800.991 273.048C800.306 273.685 799.503 274 798.531 274V276C799.997 276 801.288 275.502 802.352 274.514L800.991 273.048ZM798.531 274H789.719V276H798.531V274ZM789.719 274C788.67 274 787.864 273.676 787.225 273.061L785.838 274.502C786.886 275.511 788.205 276 789.719 276V274ZM787.252 273.088C786.636 272.448 786.312 271.643 786.312 270.594H784.312C784.312 272.107 784.801 273.427 785.811 274.475L787.252 273.088ZM786.312 270.594V258.781H784.312V270.594H786.312ZM785.312 257.781H751.984V259.781H785.312V257.781ZM751.018 258.524L747.877 270.337L749.81 270.851L752.951 259.038L751.018 258.524ZM747.872 270.357C747.616 271.406 747.047 272.277 746.124 272.989L747.345 274.573C748.609 273.598 749.446 272.344 749.815 270.831L747.872 270.357ZM746.138 272.979C745.195 273.679 744.244 274 743.266 274V276C744.724 276 746.086 275.509 747.331 274.584L746.138 272.979ZM743.266 274H734.031V276H743.266V274ZM734.031 274C732.99 274 732.471 273.711 732.198 273.357L730.615 274.58C731.404 275.601 732.635 276 734.031 276V274ZM732.21 273.374C731.728 272.721 731.609 272.309 731.609 272.094H729.609C729.609 272.941 730.022 273.779 730.602 274.563L732.21 273.374ZM731.608 272.152C731.636 271.663 731.693 271.251 731.771 270.912L729.822 270.463C729.713 270.936 729.645 271.462 729.611 272.035L731.608 272.152ZM755.453 246.516H785.312V244.516H755.453V246.516ZM786.312 245.516V221.047H784.312V245.516H786.312ZM785.312 220.047H771.953V222.047H785.312V220.047ZM771.953 220.047C768.748 220.047 765.906 220.97 763.471 222.83L764.685 224.42C766.75 222.842 769.159 222.047 771.953 222.047V220.047ZM763.473 222.829C761.066 224.659 759.448 227.134 758.613 230.207L760.543 230.731C761.271 228.053 762.653 225.966 764.683 224.421L763.473 222.829ZM758.614 230.204L754.489 245.251L756.418 245.78L760.543 230.733L758.614 230.204ZM834.062 260.047V259.047H833.062V260.047H834.062ZM817.703 273.734L816.996 274.441L817.002 274.448L817.009 274.454L817.703 273.734ZM834.062 246.781H833.062V247.781H834.062V246.781ZM863.125 244.156L863.666 244.997L863.673 244.993L863.125 244.156ZM863.125 223.719L862.577 224.555L862.584 224.56L863.125 223.719ZM834.062 221.047V220.047H833.062V221.047H834.062ZM817.391 270.594V212.234H815.391V270.594H817.391ZM817.391 212.234C817.391 211.274 817.713 210.476 818.376 209.788L816.936 208.4C815.912 209.462 815.391 210.757 815.391 212.234H817.391ZM818.376 209.788C819.031 209.109 819.802 208.781 820.75 208.781V206.781C819.261 206.781 817.969 207.329 816.936 208.4L818.376 209.788ZM820.75 208.781H856.516V206.781H820.75V208.781ZM856.516 208.781C865.834 208.781 872.636 210.932 877.107 215.055C881.563 219.165 883.875 225.395 883.875 233.938H885.875C885.875 225.043 883.46 218.194 878.463 213.585C873.481 208.99 866.104 206.781 856.516 206.781V208.781ZM883.875 233.938C883.875 242.464 881.563 248.682 877.108 252.784C872.637 256.9 865.834 259.047 856.516 259.047V261.047C866.103 261.047 873.481 258.842 878.462 254.255C883.46 249.654 885.875 242.817 885.875 233.938H883.875ZM856.516 259.047H834.062V261.047H856.516V259.047ZM833.062 260.047V270.594H835.062V260.047H833.062ZM833.062 270.594C833.062 271.543 832.734 272.337 832.043 273.027L833.457 274.441C834.516 273.382 835.062 272.082 835.062 270.594H833.062ZM832.043 273.027C831.391 273.679 830.616 274 829.656 274V276C831.134 276 832.421 275.477 833.457 274.441L832.043 273.027ZM829.656 274H820.844V276H829.656V274ZM820.844 274C819.883 274 819.085 273.678 818.397 273.015L817.009 274.454C818.071 275.478 819.367 276 820.844 276V274ZM818.41 273.027C817.72 272.337 817.391 271.543 817.391 270.594H815.391C815.391 272.082 815.937 273.382 816.996 274.441L818.41 273.027ZM834.062 247.781H851.172V245.781H834.062V247.781ZM851.172 247.781C856.505 247.781 860.714 246.897 863.666 244.997L862.584 243.315C860.098 244.915 856.338 245.781 851.172 245.781V247.781ZM863.673 244.993C866.804 242.941 868.203 239.112 868.203 233.938H866.203C866.203 238.825 864.883 241.809 862.577 243.32L863.673 244.993ZM868.203 233.938C868.203 228.736 866.807 224.899 863.666 222.878L862.584 224.56C864.881 226.038 866.203 229.014 866.203 233.938H868.203ZM863.673 222.882C860.719 220.947 856.508 220.047 851.172 220.047V222.047C856.336 222.047 860.093 222.928 862.577 224.555L863.673 222.882ZM851.172 220.047H834.062V222.047H851.172V220.047ZM833.062 221.047V246.781H835.062V221.047H833.062ZM946 273.734L945.472 274.583L945.479 274.588L945.486 274.592L946 273.734ZM942.719 270.594L941.873 271.127L941.877 271.133L942.719 270.594ZM934.469 257.516L933.618 258.041L933.623 258.049L934.469 257.516ZM928.516 250.344L927.885 251.12L927.892 251.126L928.516 250.344ZM911.219 247.906V246.906H910.219V247.906H911.219ZM909.906 273.781L910.6 274.502L910.6 274.501L909.906 273.781ZM894.859 273.688L894.14 274.382L894.146 274.388L894.152 274.395L894.859 273.688ZM909.906 209.047L909.174 209.728L909.181 209.735L909.187 209.741L909.906 209.047ZM911.219 234.688H910.219V235.688H911.219V234.688ZM928.516 232.438L927.933 231.625L927.927 231.629L928.516 232.438ZM934.469 225.172L933.597 224.682L933.597 224.683L934.469 225.172ZM941.734 212.234L942.606 212.724L942.61 212.718L941.734 212.234ZM948.484 207.688V206.687L948.473 206.688L948.484 207.688ZM960.766 212.234L961.641 212.718L961.645 212.711L961.649 212.704L960.766 212.234ZM950.594 230.656L949.718 230.173L949.716 230.177L950.594 230.656ZM945.625 237.312L944.937 236.587L944.93 236.593L945.625 237.312ZM938.5 241.016L938.262 240.044L938.292 241.994L938.5 241.016ZM944.828 244.906L944.121 245.613L944.126 245.618L944.828 244.906ZM950.594 251.938L951.441 251.406L951.436 251.398L951.431 251.39L950.594 251.938ZM962.312 270.594L963.175 270.088L963.167 270.075L963.159 270.062L962.312 270.594ZM962.109 272.938C962.109 273.423 961.974 273.62 961.854 273.721C961.702 273.849 961.367 274 960.672 274V276C961.602 276 962.485 275.807 963.146 275.248C963.839 274.662 964.109 273.827 964.109 272.938H962.109ZM960.672 274H949.938V276H960.672V274ZM949.938 274C948.952 274 947.817 273.659 946.514 272.877L945.486 274.592C946.995 275.498 948.485 276 949.938 276V274ZM946.528 272.885C945.23 272.078 944.251 271.131 943.561 270.054L941.877 271.133C942.749 272.494 943.957 273.641 945.472 274.583L946.528 272.885ZM943.565 270.06L935.315 256.982L933.623 258.049L941.873 271.127L943.565 270.06ZM935.32 256.99C933.316 253.746 931.26 251.252 929.139 249.562L927.892 251.126C929.771 252.623 931.684 254.91 933.618 258.041L935.32 256.99ZM929.146 249.568C926.951 247.784 924.317 246.906 921.297 246.906V248.906C923.902 248.906 926.08 249.653 927.885 251.12L929.146 249.568ZM921.297 246.906H911.219V248.906H921.297V246.906ZM910.219 247.906V270.688H912.219V247.906H910.219ZM910.219 270.688C910.219 271.636 909.891 272.407 909.212 273.061L910.6 274.501C911.671 273.468 912.219 272.177 912.219 270.688H910.219ZM909.213 273.061C908.563 273.686 907.784 274 906.812 274V276C908.278 276 909.562 275.501 910.6 274.502L909.213 273.061ZM906.812 274H898V276H906.812V274ZM898 274C897.051 274 896.257 273.671 895.566 272.98L894.152 274.395C895.212 275.454 896.512 276 898 276V274ZM895.579 272.993C894.877 272.266 894.547 271.45 894.547 270.5H892.547C892.547 271.987 893.092 273.296 894.14 274.382L895.579 272.993ZM894.547 270.5V212.234H892.547V270.5H894.547ZM894.547 212.234C894.547 211.284 894.877 210.468 895.579 209.741L894.14 208.352C893.092 209.438 892.547 210.747 892.547 212.234H894.547ZM895.579 209.741C896.272 209.023 897.063 208.688 898 208.688V206.688C896.5 206.688 895.196 207.258 894.14 208.352L895.579 209.741ZM898 208.688H906.812V206.688H898V208.688ZM906.812 208.688C907.749 208.688 908.516 209.022 909.174 209.728L910.638 208.365C909.609 207.26 908.314 206.688 906.812 206.688V208.688ZM909.187 209.741C909.889 210.468 910.219 211.284 910.219 212.234H912.219C912.219 210.747 911.674 209.438 910.626 208.352L909.187 209.741ZM910.219 212.234V234.688H912.219V212.234H910.219ZM911.219 235.688H921.297V233.688H911.219V235.688ZM921.297 235.688C924.241 235.688 926.857 234.88 929.104 233.246L927.927 231.629C926.05 232.995 923.853 233.688 921.297 233.688V235.688ZM929.098 233.25C931.355 231.634 933.426 229.075 935.341 225.661L933.597 224.683C931.761 227.956 929.864 230.241 927.933 231.625L929.098 233.25ZM935.341 225.662L942.606 212.724L940.862 211.745L933.597 224.682L935.341 225.662ZM942.61 212.718C944.134 209.957 946.091 208.714 948.495 208.687L948.473 206.688C945.19 206.724 942.647 208.512 940.859 211.751L942.61 212.718ZM948.484 208.688H959.312V206.688H948.484V208.688ZM959.312 208.688C959.939 208.688 960.222 208.827 960.341 208.932C960.436 209.015 960.562 209.191 960.562 209.656H962.562C962.562 208.809 962.314 208.001 961.659 207.427C961.028 206.876 960.186 206.688 959.312 206.688V208.688ZM960.562 209.656C960.562 210.144 960.377 210.835 959.883 211.765L961.649 212.704C962.217 211.634 962.562 210.606 962.562 209.656H960.562ZM959.89 211.751L949.718 230.173L951.469 231.14L961.641 212.718L959.89 211.751ZM949.716 230.177C948.287 232.791 946.691 234.922 944.937 236.587L946.313 238.038C948.246 236.203 949.963 233.896 951.471 231.136L949.716 230.177ZM944.93 236.593C943.269 238.198 941.062 239.359 938.262 240.044L938.738 241.987C941.813 241.235 944.356 239.927 946.32 238.032L944.93 236.593ZM938.292 241.994C940.099 242.377 942.044 243.536 944.121 245.613L945.535 244.199C943.3 241.964 941.026 240.529 938.708 240.037L938.292 241.994ZM944.126 245.618C946.264 247.726 948.14 250.014 949.757 252.485L951.431 251.39C949.735 248.798 947.767 246.399 945.53 244.194L944.126 245.618ZM949.747 252.469L961.466 271.126L963.159 270.062L951.441 251.406L949.747 252.469ZM961.45 271.099C961.94 271.936 962.109 272.536 962.109 272.938H964.109C964.109 272.027 963.748 271.064 963.175 270.088L961.45 271.099ZM985.656 209.047L984.949 209.754L984.956 209.76L984.962 209.767L985.656 209.047ZM986.969 259.062H985.969V262.839L987.838 259.557L986.969 259.062ZM1013.64 212.234L1012.78 211.726L1012.78 211.733L1012.77 211.739L1013.64 212.234ZM1036.94 273.734L1037.63 274.454L1037.64 274.448L1037.64 274.441L1036.94 273.734ZM1022.41 273.734L1021.69 274.429L1021.7 274.442L1021.71 274.454L1022.41 273.734ZM1021.14 227.094H1022.14V223.276L1020.27 226.603L1021.14 227.094ZM996.672 270.594L997.533 271.102L997.538 271.093L997.543 271.084L996.672 270.594ZM993.625 273.734L994.166 274.576L994.173 274.571L994.18 274.566L993.625 273.734ZM971.172 273.734L970.465 274.441L970.471 274.448L970.478 274.454L971.172 273.734ZM970.859 270.594V212.234H968.859V270.594H970.859ZM970.859 212.234C970.859 211.197 971.191 210.395 971.832 209.754L970.418 208.34C969.372 209.386 968.859 210.71 968.859 212.234H970.859ZM971.832 209.754C972.474 209.113 973.275 208.781 974.312 208.781V206.781C972.788 206.781 971.464 207.294 970.418 208.34L971.832 209.754ZM974.312 208.781H982.562V206.781H974.312V208.781ZM982.562 208.781C983.522 208.781 984.297 209.102 984.949 209.754L986.363 208.34C985.328 207.304 984.04 206.781 982.562 206.781V208.781ZM984.962 209.767C985.641 210.421 985.969 211.193 985.969 212.141H987.969C987.969 210.651 987.421 209.36 986.35 208.327L984.962 209.767ZM985.969 212.141V259.062H987.969V212.141H985.969ZM987.838 259.557L1014.51 212.729L1012.77 211.739L986.1 258.568L987.838 259.557ZM1014.5 212.742C1015.14 211.656 1016.03 210.713 1017.17 209.913L1016.02 208.275C1014.66 209.225 1013.58 210.375 1012.78 211.726L1014.5 212.742ZM1017.17 209.913C1018.32 209.106 1019.28 208.781 1020.06 208.781V206.781C1018.72 206.781 1017.37 207.331 1016.02 208.275L1017.17 209.913ZM1020.06 208.781H1033.89V206.781H1020.06V208.781ZM1033.89 208.781C1034.84 208.781 1035.61 209.109 1036.26 209.788L1037.7 208.4C1036.67 207.329 1035.38 206.781 1033.89 206.781V208.781ZM1036.26 209.788C1036.93 210.476 1037.25 211.274 1037.25 212.234H1039.25C1039.25 210.757 1038.73 209.462 1037.7 208.4L1036.26 209.788ZM1037.25 212.234V270.594H1039.25V212.234H1037.25ZM1037.25 270.594C1037.25 271.543 1036.92 272.337 1036.23 273.027L1037.64 274.441C1038.7 273.382 1039.25 272.082 1039.25 270.594H1037.25ZM1036.24 273.015C1035.56 273.678 1034.76 274 1033.8 274V276C1035.27 276 1036.57 275.478 1037.63 274.454L1036.24 273.015ZM1033.8 274H1025.55V276H1033.8V274ZM1025.55 274C1024.59 274 1023.79 273.678 1023.1 273.015L1021.71 274.454C1022.77 275.478 1024.07 276 1025.55 276V274ZM1023.13 273.04C1022.46 272.352 1022.14 271.554 1022.14 270.594H1020.14C1020.14 272.071 1020.66 273.367 1021.69 274.429L1023.13 273.04ZM1022.14 270.594V227.094H1020.14V270.594H1022.14ZM1020.27 226.603L995.8 270.103L997.543 271.084L1022.01 227.584L1020.27 226.603ZM995.811 270.086C995.177 271.161 994.272 272.101 993.07 272.902L994.18 274.566C995.603 273.618 996.73 272.464 997.533 271.102L995.811 270.086ZM993.084 272.893C991.888 273.662 990.808 274 989.828 274V276C991.286 276 992.737 275.494 994.166 274.576L993.084 272.893ZM989.828 274H974.312V276H989.828V274ZM974.312 274C973.352 274 972.554 273.678 971.866 273.015L970.478 274.454C971.54 275.478 972.836 276 974.312 276V274ZM971.879 273.027C971.188 272.337 970.859 271.543 970.859 270.594H968.859C968.859 272.082 969.405 273.382 970.465 274.441L971.879 273.027Z" fill="white"/>
</svg>
