<svg width="329" height="329" viewBox="0 0 329 329" fill="none" xmlns="http://www.w3.org/2000/svg">
<mask id="path-1-inside-1_7_91" fill="transparent">
<path fill-rule="evenodd" clip-rule="evenodd" d="M164.5 323C252.037 323 323 252.037 323 164.5C323 76.9629 252.037 6 164.5 6C76.9629 6 6 76.9629 6 164.5C6 252.037 76.9629 323 164.5 323ZM164.5 329C255.351 329 329 255.351 329 164.5C329 73.6492 255.351 0 164.5 0C73.6492 0 0 73.6492 0 164.5C0 255.351 73.6492 329 164.5 329ZM114 79.1208L83 113.866V121.25V164.5V207.75V229.375L115 251V164.5V124.048L135 105H169H201.5H234L213 78H201.5H169H115H114V79.1208ZM166 118H150L134 134.125V182.5V214.75V247H142H150H166H203H221.5L240 220H221.5H203H166V182.5V150.25V145H203H221.5L240 118H221.5H203H166Z"/>
</mask>
<path fill-rule="evenodd" clip-rule="evenodd" d="M164.5 323C252.037 323 323 252.037 323 164.5C323 76.9629 252.037 6 164.5 6C76.9629 6 6 76.9629 6 164.5C6 252.037 76.9629 323 164.5 323ZM164.5 329C255.351 329 329 255.351 329 164.5C329 73.6492 255.351 0 164.5 0C73.6492 0 0 73.6492 0 164.5C0 255.351 73.6492 329 164.5 329ZM114 79.1208L83 113.866V121.25V164.5V207.75V229.375L115 251V164.5V124.048L135 105H169H201.5H234L213 78H201.5H169H115H114V79.1208ZM166 118H150L134 134.125V182.5V214.75V247H142H150H166H203H221.5L240 220H221.5H203H166V182.5V150.25V145H203H221.5L240 118H221.5H203H166Z" fill="white"/>
<path d="M83 113.866L77.7768 109.206L76 111.197V113.866H83ZM114 79.1208L119.223 83.7811L121 81.7896V79.1208H114ZM83 229.375H76V233.093L79.0806 235.175L83 229.375ZM115 251L111.081 256.8L122 264.179V251H115ZM115 124.048L110.172 118.979L108 121.048V124.048H115ZM135 105V98H132.2L130.172 99.931L135 105ZM234 105V112H248.312L239.525 100.702L234 105ZM213 78L218.525 73.7024L216.424 71H213V78ZM114 78V71H107V78H114ZM150 118V111H147.085L145.031 113.07L150 118ZM134 134.125L129.031 129.195L127 131.241V134.125H134ZM134 247H127V254H134V247ZM221.5 247V254H225.189L227.275 250.957L221.5 247ZM240 220L245.775 223.957L253.282 213H240V220ZM166 220H159V227H166V220ZM166 145V138H159V145H166ZM221.5 145V152H225.189L227.275 148.957L221.5 145ZM240 118L245.775 121.957L253.282 111H240V118ZM316 164.5C316 248.171 248.171 316 164.5 316V330C255.903 330 330 255.903 330 164.5H316ZM164.5 13C248.171 13 316 80.8289 316 164.5H330C330 73.0969 255.903 -1 164.5 -1V13ZM13 164.5C13 80.8289 80.8289 13 164.5 13V-1C73.0969 -1 -1 73.0969 -1 164.5H13ZM164.5 316C80.8289 316 13 248.171 13 164.5H-1C-1 255.903 73.0969 330 164.5 330V316ZM322 164.5C322 251.485 251.485 322 164.5 322V336C259.217 336 336 259.217 336 164.5H322ZM164.5 7C251.485 7 322 77.5152 322 164.5H336C336 69.7832 259.217 -7 164.5 -7V7ZM7 164.5C7 77.5152 77.5152 7 164.5 7V-7C69.7832 -7 -7 69.7832 -7 164.5H7ZM164.5 322C77.5152 322 7 251.485 7 164.5H-7C-7 259.217 69.7832 336 164.5 336V322ZM88.2232 118.526L119.223 83.7811L108.777 74.4606L77.7768 109.206L88.2232 118.526ZM90 121.25V113.866H76V121.25H90ZM90 164.5V121.25H76V164.5H90ZM90 207.75V164.5H76V207.75H90ZM90 229.375V207.75H76V229.375H90ZM118.919 245.2L86.9194 223.575L79.0806 235.175L111.081 256.8L118.919 245.2ZM108 164.5V251H122V164.5H108ZM108 124.048V164.5H122V124.048H108ZM130.172 99.931L110.172 118.979L119.828 129.117L139.828 110.069L130.172 99.931ZM169 98H135V112H169V98ZM201.5 98H169V112H201.5V98ZM234 98H201.5V112H234V98ZM207.475 82.2976L228.475 109.298L239.525 100.702L218.525 73.7024L207.475 82.2976ZM201.5 85H213V71H201.5V85ZM169 85H201.5V71H169V85ZM115 85H169V71H115V85ZM114 85H115V71H114V85ZM121 79.1208V78H107V79.1208H121ZM150 125H166V111H150V125ZM138.969 139.055L154.969 122.93L145.031 113.07L129.031 129.195L138.969 139.055ZM141 182.5V134.125H127V182.5H141ZM141 214.75V182.5H127V214.75H141ZM141 247V214.75H127V247H141ZM142 240H134V254H142V240ZM150 240H142V254H150V240ZM166 240H150V254H166V240ZM203 240H166V254H203V240ZM221.5 240H203V254H221.5V240ZM234.225 216.043L215.725 243.043L227.275 250.957L245.775 223.957L234.225 216.043ZM221.5 227H240V213H221.5V227ZM203 227H221.5V213H203V227ZM166 227H203V213H166V227ZM159 182.5V220H173V182.5H159ZM159 150.25V182.5H173V150.25H159ZM159 145V150.25H173V145H159ZM203 138H166V152H203V138ZM221.5 138H203V152H221.5V138ZM234.225 114.043L215.725 141.043L227.275 148.957L245.775 121.957L234.225 114.043ZM221.5 125H240V111H221.5V125ZM203 125H221.5V111H203V125ZM166 125H203V111H166V125Z" fill="white" mask="url(#path-1-inside-1_7_91)"/>
</svg>
